<?xml version="1.0" encoding="UTF-8" standalone="no"?>
<!-- Created with Inkscape (http://www.inkscape.org/) -->

<svg
   version="1.1"
   id="svg924"
   width="500"
   height="500"
   viewBox="0 0 500 500"
   sodipodi:docname="blob-2.svg"
   inkscape:version="1.1.1 (3bf5ae0d25, 2021-09-20)"
   xmlns:inkscape="http://www.inkscape.org/namespaces/inkscape"
   xmlns:sodipodi="http://sodipodi.sourceforge.net/DTD/sodipodi-0.dtd"
   xmlns:xlink="http://www.w3.org/1999/xlink"
   xmlns="http://www.w3.org/2000/svg"
   xmlns:svg="http://www.w3.org/2000/svg">
  <defs
     id="defs928">
    <inkscape:path-effect
       effect="bspline"
       id="path-effect16718"
       is_visible="true"
       lpeversion="1"
       weight="33.333333"
       steps="2"
       helper_size="0"
       apply_no_weight="true"
       apply_with_weight="true"
       only_selected="false" />
    <inkscape:path-effect
       effect="bspline"
       id="path-effect12274"
       is_visible="true"
       lpeversion="1"
       weight="33.333333"
       steps="2"
       helper_size="0"
       apply_no_weight="true"
       apply_with_weight="true"
       only_selected="false" />
    <inkscape:path-effect
       effect="bspline"
       id="path-effect11940"
       is_visible="true"
       lpeversion="1"
       weight="33.333333"
       steps="2"
       helper_size="0"
       apply_no_weight="true"
       apply_with_weight="true"
       only_selected="false" />
    <inkscape:path-effect
       effect="bspline"
       id="path-effect9241"
       is_visible="true"
       lpeversion="1"
       weight="33.333333"
       steps="2"
       helper_size="0"
       apply_no_weight="true"
       apply_with_weight="true"
       only_selected="false" />
    <clipPath
       clipPathUnits="userSpaceOnUse"
       id="clipPath8652">
      <path
         style="fill:#65c9ff;stroke:none;stroke-width:0.805569"
         d="m 942.33079,1067.1024 c -54.86424,7.8561 -103.95819,53.6774 -131.62948,99.5459 -13.84673,22.9531 -23.42884,49.4733 -18.51759,76.5292 5.43253,29.9278 26.59336,55.3605 48.64507,75.0519 42.9861,38.3839 100.39756,67.1613 159.50311,58.4539 23.2972,-3.4318 48.3424,-11.0621 64.2041,-29.5871 17.7161,-20.6902 21.1865,-50.3393 21.1865,-76.5292 0,-54.4712 -9.5694,-110.4463 -44.7986,-153.8642 -23.4615,-28.9147 -59.21597,-55.2389 -98.59311,-49.6004 z"
         id="path8654" />
    </clipPath>
    <clipPath
       clipPathUnits="userSpaceOnUse"
       id="clipPath33772">
      <path
         d="m 879.98411,104.45984 c 25.32776,8.359 51.28245,21.94237 68.293,43.3832 17.05236,21.39902 25.16058,50.65551 22.98724,78.65815 -2.17333,28.00264 -14.62824,54.75143 -32.72547,74.35327 -18.05543,19.60185 -41.75318,32.05675 -64.9076,47.27012 -23.19622,15.17158 -45.80731,33.10163 -69.08711,34.1883 -23.2798,1.04487 -47.14473,-14.67004 -74.31148,-27.54289 -27.12493,-12.91465 -57.55168,-22.94544 -76.6102,-43.63396 -19.01671,-20.68852 -26.74878,-52.03476 -16.55081,-77.4879 10.15618,-25.49494 38.24241,-45.09678 55.87989,-68.16762 17.67928,-23.11262 24.90982,-49.73602 41.87857,-62.94324 16.96877,-13.165419 43.67575,-12.956443 69.37967,-11.242849 25.70392,1.671798 50.40475,4.806425 75.7743,13.165419"
         fill="#65c9ff"
         id="path33774"
         style="stroke-width:0.41795" />
    </clipPath>
  </defs>
  <sodipodi:namedview
     id="namedview926"
     pagecolor="#ffffff"
     bordercolor="#666666"
     borderopacity="1.0"
     inkscape:pageshadow="2"
     inkscape:pageopacity="0.0"
     inkscape:pagecheckerboard="0"
     showgrid="false"
     inkscape:zoom="1.4142136"
     inkscape:cx="181.37289"
     inkscape:cy="245.0125"
     inkscape:window-width="1920"
     inkscape:window-height="1009"
     inkscape:window-x="1272"
     inkscape:window-y="-8"
     inkscape:window-maximized="1"
     inkscape:current-layer="g930" />
  <g
     inkscape:groupmode="layer"
     inkscape:label="Image"
     id="g930">
    <path
       d="m 362.62695,74.741224 c 36.71165,12.116055 74.33201,31.804646 98.98818,62.882336 24.71676,31.0171 36.46933,73.4233 33.31915,114.01208 -3.15017,40.58879 -21.20309,79.36017 -47.43436,107.77232 -26.17068,28.41215 -60.51969,46.46507 -94.08116,68.51629 -33.62207,21.99064 -66.396,47.97959 -100.13921,49.55467 C 219.53634,478.99343 184.945,456.21525 145.56781,437.55652 106.25122,418.83721 62.148768,404.29795 34.524158,374.31071 6.9601324,344.32347 -4.2472159,298.88826 10.534368,261.99487 25.25538,225.0409 65.965324,196.62875 91.530198,163.18843 117.15567,129.68754 127.63606,91.097903 152.23164,71.95453 176.82724,52.87174 215.53803,53.174643 252.7949,55.658434 c 37.25688,2.423209 73.05982,6.966735 109.83205,19.08279"
       fill="#65c9ff"
       id="path33673"
       style="stroke-width:0.605803" />
    <path
       d="m 389.01528,436.73279 9.5559,-7.1669 c 1.443,-1.0823 3.4319,-1.0648 4.8558,0.0426 l 6.5884,5.1243 -21,2 z"
       fill="#e6e6e6"
       id="path1527-7"
       style="fill:none" />
    <path
       style="fill:#000000"
       id="path7189"
       d="" />
    <path
       style="fill:#000000"
       id="path7169"
       d="" />
    <path
       style="fill:#000000"
       id="path7149"
       d="" />
    <g
       id="g32142"
       transform="matrix(1.449463,0,0,1.449463,-912.87746,-76.669451)"
       clip-path="url(#clipPath33772)">
      <g
         transform="translate(705.87025,154.49272)"
         id="g30372"
         style="fill:none">
        <mask
           id="g"
           fill="#ffffff">
          <path
             id="d"
             d="m 124,144.61 v 18.389 h 4 c 39.765,0 72,32.235 72,72 v 9 H 0 v -9 c 0,-39.765 32.235,-72 72,-72 h 4 V 144.61 C 58.763,136.4214 46.372,119.686 44.305,99.88 38.4802,99.05655 34,94.0509 34,87.999 v -14 c 0,-5.946 4.3246,-10.882 10,-11.834 v -6.1659 c 0,-30.928 25.072,-56 56,-56 30.928,0 56,25.072 56,56 v 6.1659 c 5.6754,0.95216 10,5.8881 10,11.834 v 14 c 0,6.0521 -4.4803,11.058 -10.305,11.881 -2.0671,19.806 -14.457,36.541 -31.695,44.73 z" />
        </mask>
        <path
           id="path30363"
           d="m 124,144.61 v 18.389 h 4 c 39.765,0 72,32.235 72,72 v 9 H 0 v -9 c 0,-39.765 32.235,-72 72,-72 h 4 V 144.61 C 58.763,136.4214 46.372,119.686 44.305,99.88 38.4802,99.05655 34,94.0509 34,87.999 v -14 c 0,-5.946 4.3246,-10.882 10,-11.834 v -6.1659 c 0,-30.928 25.072,-56 56,-56 30.928,0 56,25.072 56,56 v 6.1659 c 5.6754,0.95216 10,5.8881 10,11.834 v 14 c 0,6.0521 -4.4803,11.058 -10.305,11.881 -2.0671,19.806 -14.457,36.541 -31.695,44.73 z" />
        <g
           fill="#edb98a"
           mask="url(#g)"
           id="g30368">
          <g
             id="l">
            <rect
               width="264"
               height="280"
               id="rect30365"
               x="0"
               y="0" />
          </g>
        </g>
        <path
           d="m 156,79 v 23 c 0,30.928 -25.072,56 -56,56 -30.928,0 -56,-25.072 -56,-56 V 79 94 c 0,30.928 25.072,56 56,56 30.928,0 56,-25.072 56,-56 z"
           fill="#000000"
           fill-opacity="0.1"
           mask="url(#g)"
           id="path30370" />
      </g>
      <g
         id="g31747"
         transform="translate(673.87025,288.49272)"
         style="fill:none">
        <g
           transform="translate(32,29)"
           id="g30388">
          <mask
             id="e"
             fill="#ffffff">
            <path
               id="a"
               d="m 133.96,0.29492 c 36.976,3.0301 66.04,33.999 66.04,71.757 v 8.9483 H 0 v -8.9483 c 0,-38.099 29.592,-69.287 67.045,-71.832 -0.03015,0.37359 -0.04541,0.7497 -0.04541,1.1281 0,11.863 14.998,21.48 33.5,21.48 18.502,0 33.5,-9.6169 33.5,-21.48 0,-0.35296 -0.0133,-0.70392 -0.0395,-1.0527 z" />
          </mask>
          <g
             id="g31617">
            <g
               fill="#262e33"
               mask="url(#e)"
               id="g30380">
              <g
                 transform="translate(-32,-29)"
                 id="g30378">
                <rect
                   width="264"
                   height="110"
                   id="rect30376"
                   x="0"
                   y="0" />
              </g>
            </g>
            <g
               fill="#000000"
               fill-opacity="0.16"
               mask="url(#e)"
               opacity="0.6"
               id="g30386">
              <g
                 transform="translate(60,-25)"
                 id="g30384">
                <ellipse
                   cx="40.5"
                   cy="27.848"
                   rx="39.634998"
                   ry="26.914"
                   id="ellipse30382" />
              </g>
            </g>
          </g>
        </g>
        <g
           transform="translate(32,28)"
           id="g30397">
          <path
             d="M 68.785,1.1222 C 30.513,2.8041 0,34.3642 0,73.0512 v 0 8.9483 h 69.362 c -3.4009,-12.08 -5.3617,-26.291 -5.3617,-41.5 0,-14.327 1.74,-27.769 4.7848,-39.378 z m 62.854,80.878 h 68.362 v -8.9483 c 0,-38.345 -29.975,-69.689 -67.771,-71.878 3.0364,11.597 4.7713,25.02 4.7713,39.326 0,15.209 -1.9607,29.42 -5.3617,41.5 z"
             fill="#3a4c5a"
             id="path30390" />
          <path
             d="m 149,58 9.5559,-7.1669 c 1.443,-1.0823 3.4319,-1.0648 4.8558,0.04259 l 6.5884,5.1243 -21,2 z"
             fill="#e6e6e6"
             id="path30392" />
          <path
             id="k"
             d="m 69,0 c -4,19.333 -2.3333,46.667 5,82 H 58 L 44,46 50,37 44,31 63,1 c 2.0277,-0.63076 4.0277,-0.96409 6,-1 z"
             fill="#2f4351" />
          <path
             transform="matrix(-1,0,0,1,282,0)"
             d="m 151,0 c -4,19.333 -2.3333,46.667 5,82 h -16 l -14,-36 6,-9 -6,-6 19,-30 c 2.0277,-0.63076 4.0277,-0.96409 6,-1 z"
             fill="#2f4351"
             id="path30395" />
        </g>
      </g>
      <g
         transform="translate(751.87025,252.49272)"
         id="g30415"
         style="fill:#000000">
        <mask
           id="f"
           fill="#ffffff">
          <path
             id="b"
             d="M 35.118,15.128 C 36.1759,24.6197 44.2261,32 54,32 63.8042,32 71.874,24.5741 72.892,15.04 72.97391,14.27269 72.11698,12.9999 71.043,12.9999 H 37.087 c -1.0802,0 -2.0748,1.1784 -1.969,2.1281 z" />
        </mask>
        <use
           fill="#000000"
           fill-opacity="0.7"
           fill-rule="evenodd"
           xlink:href="#b"
           id="use30403"
           x="0"
           y="0"
           width="100%"
           height="100%" />
        <rect
           x="39"
           y="2"
           width="31"
           height="16"
           rx="5"
           fill="#ffffff"
           fill-rule="evenodd"
           mask="url(#f)"
           id="rect30405" />
        <g
           fill="#ff4f6d"
           fill-rule="evenodd"
           mask="url(#f)"
           id="g30413">
          <g
             transform="translate(38,24)"
             id="g30411">
            <circle
               cx="11"
               cy="11"
               r="11"
               id="circle30407" />
            <circle
               cx="21"
               cy="11"
               r="11"
               id="circle30409" />
          </g>
        </g>
      </g>
      <g
         transform="translate(777.87025,240.49272)"
         fill-opacity="0.16"
         id="g30419"
         style="fill:#000000">
        <path
           d="m 16,8 c 0,4.4183 5.3726,8 12,8 6.6274,0 12,-3.5817 12,-8"
           id="path30417" />
      </g>
      <g
         transform="translate(749.87025,208.49272)"
         fill-opacity="0.6"
         id="g30424"
         style="fill:#000000">
        <path
           id="m"
           d="m 16.16,22.447 c 1.8465,-3.7988 6.0043,-6.4473 10.837,-6.4473 4.8161,0 8.9615,2.6298 10.818,6.4071 0.55141,1.1221 -0.23325,2.0404 -1.0247,1.3599 -2.4511,-2.1072 -5.9319,-3.4232 -9.793,-3.4232 -3.7404,0 -7.1238,1.235 -9.56,3.2279 -0.89075,0.72865 -1.8174,-0.01326 -1.2774,-1.1243 z" />
        <path
           d="m 74.16,22.447 c 1.8465,-3.7988 6.0043,-6.4473 10.837,-6.4473 4.8161,0 8.9615,2.6298 10.818,6.4071 0.55141,1.1221 -0.23325,2.0404 -1.0247,1.3599 -2.4511,-2.1072 -5.9319,-3.4232 -9.793,-3.4232 -3.7404,0 -7.1238,1.235 -9.56,3.2279 -0.89075,0.72865 -1.8174,-0.01326 -1.2774,-1.1243 z"
           id="path30422" />
      </g>
      <g
         fill-opacity="0.6"
         id="g30429"
         transform="translate(749.87025,200.49272)"
         style="fill:#000000">
        <path
           id="n"
           transform="rotate(5,27,12)"
           d="m 26.039,6.2101 c -5.7615,0.77334 -14.746,5.7951 -13.995,11.608 0.02469,0.19024 0.31247,0.24954 0.43665,0.09068 2.4865,-3.1882 21.712,-7.8719 28.713,-6.8938 0.64078,0.08973 1.0638,-0.57168 0.62678,-0.98451 -3.7445,-3.5354 -10.621,-4.518 -15.782,-3.8201" />
        <path
           transform="matrix(-0.9961947,0.08715574,0.08715574,0.9961947,170.62688,-7.4497303)"
           d="m 85.039,6.2101 c -5.7615,0.77334 -14.746,5.7951 -13.995,11.608 0.02469,0.19024 0.31247,0.24954 0.43665,0.09068 2.4865,-3.1882 21.712,-7.8719 28.713,-6.8938 0.64078,0.08973 1.0638,-0.57168 0.62678,-0.98451 -3.7445,-3.5354 -10.621,-4.518 -15.782,-3.8201"
           id="path30427" />
      </g>
      <g
         fill-rule="evenodd"
         id="g30449"
         transform="translate(673.87025,118.49272)"
         style="fill:none">
        <mask
           id="i"
           fill="#ffffff">
          <rect
             id="h"
             width="264"
             height="280"
             x="0"
             y="0" />
        </mask>
        <g
           mask="url(#i)"
           id="g30447">
          <g
             transform="translate(-1)"
             id="g30445">
            <mask
               id="j"
               fill="#ffffff">
              <path
                 id="c"
                 d="m 94.252,52.022 c 0.12301,-0.0544 -0.18226,-0.0753 -0.91579,-0.0626 0.89153,-0.0018 1.1968,0.019 0.91579,0.0626 M 86.1171,36.301 c -0.0021,-0.0196 0.01678,0.1511 0,0 m 107.65,34.464 c -0.26411,-3.3169 -0.73211,-6.6138 -1.5184,-9.8546 -0.62444,-2.5757 -1.4777,-5.0335 -2.4867,-7.491 -0.6093,-1.4847 -2.0325,-3.5239 -2.1997,-5.1256 -0.16486,-1.5776 1.0662,-3.3254 1.329,-5.1622 0.25503,-1.7876 0.21162,-3.6671 -0.1551,-5.4385 -0.83304,-4.0228 -3.5939,-7.7638 -7.857,-8.8124 -0.9518,-0.23422 -2.9638,0.05442 -3.6363,-0.49986 -0.77113,-0.63559 -1.3081,-2.8009 -2.0062,-3.6694 -1.9904,-2.476 -5.0948,-4.0704 -8.3688,-3.5145 -2.411,0.40915 -1.0265,0.90771 -2.8339,-0.51119 -1.005,-0.78882 -1.7559,-1.9933 -2.7319,-2.8472 -1.4672,-1.2828 -3.1505,-2.381 -4.8919,-3.2823 -4.5568,-2.358 -9.7539,-4.0721 -14.844,-4.9075 -9.2852,-1.5242 -19.195,-0.19534 -28.195,2.2194 -4.4784,1.2015 -8.9871,2.7264 -13.147,4.743 -1.7835,0.86462 -2.813,1.5819 -4.6726,1.8083 -2.9288,0.35667 -5.409,0.33885 -8.1834,1.5809 -8.5363,3.822 -12.381,12.689 -9.0595,21.174 0.66818,1.7066 1.5729,3.2052 2.8201,4.5836 1.5207,1.6807 2.0708,1.3499 0.76104,3.2826 -1.9588,2.89 -3.6101,5.9717 -4.9545,9.1717 -3.529,8.4017 -4.1194,17.864 -3.8896,26.824 0.08041,3.1368 0.21499,6.3122 0.70956,9.4189 0.21364,1.3447 0.27353,3.8732 1.2822,4.8709 0.51173,0.50601 1.2408,0.78817 1.9682,0.58667 1.7095,-0.47362 1.1217,-1.7351 1.1614,-2.9062 0.19985,-5.8836 -0.06998,-11.089 1.3293,-16.901 1.0336,-4.2946 2.7562,-8.195 4.9885,-12.035 2.8386,-4.8842 5.9029,-9.1736 9.8067,-13.356 0.91782,-0.98351 1.1183,-1.4004 2.3491,-1.4717 0.93195,-0.05378 2.2952,0.58441 3.2013,0.80534 1.9978,0.4869 3.9993,0.96829 6.0335,1.2961 3.7399,0.60287 7.4432,0.64337 11.217,0.52512 7.4264,-0.23227 14.885,-0.75319 22.085,-2.6234 4.7819,-1.2417 9.0215,-3.4708 13.602,-5.1048 0.0818,-0.02916 1.2297,-0.84713 1.4309,-0.81376 0.28093,0.04633 1.977,1.8258 2.2633,2.05 2.2256,1.7454 4.6668,2.4782 7.0704,3.8297 2.9634,1.6664 0.0935,-0.7182 1.728,1.3586 0.47641,0.60482 0.72033,1.7263 1.1025,2.4115 1.2159,2.1828 2.9076,4.1012 4.9309,5.6235 1.9551,1.4707 4.8933,2.1812 5.8902,4.0954 0.76878,1.4769 1.0278,3.4841 1.6482,5.0608 1.6274,4.1352 3.7766,7.9915 5.9258,11.886 1.7314,3.1388 3.6252,5.8807 3.8176,9.4675 0.0669,1.2485 -1.121,8.7376 1.7727,6.4599 0.42897,-0.33756 1.3539,-4.156 1.5439,-4.8039 0.77113,-2.6327 1.0453,-5.3811 1.3946,-8.0861 0.69442,-5.3795 0.92253,-10.498 0.46901,-15.916" />
            </mask>
            <use
               fill="#28354b"
               fill-rule="evenodd"
               id="use30437"
               x="0"
               y="0"
               width="100%"
               height="100%" />
            <g
               fill="#4a312c"
               mask="url(#j)"
               id="g30443">
              <g
                 id="g30441">
                <rect
                   width="264"
                   height="280"
                   id="rect30439"
                   x="0"
                   y="0" />
              </g>
            </g>
          </g>
        </g>
      </g>
    </g>
    <path
       d="m 362.25,282.25 c 4,19.333 2.3333,46.667 -5,82 h 16 l 14,-36 -6,-9 6,-6 -19,-30 c -2.0277,-0.63076 -4.0277,-0.96409 -6,-1 z"
       fill="#2f4351"
       id="path1530"
       style="fill:none" />
    <path
       d="m 510.63765,492.59423 9.5559,-7.1669 c 1.443,-1.0823 3.4319,-1.0648 4.8558,0.0426 l 6.5884,5.1243 -21,2 z"
       fill="#e6e6e6"
       id="path1527"
       style="fill:none" />
  </g>
</svg>
